<?xml version="1.0" standalone="no"?>
<!DOCTYPE svg PUBLIC "-//W3C//DTD SVG 20010904//EN"
 "http://www.w3.org/TR/2001/REC-SVG-20010904/DTD/svg10.dtd">
<svg version="1.0" xmlns="http://www.w3.org/2000/svg"
 width="56.000000pt" height="56.000000pt" viewBox="0 0 56.000000 56.000000"
 preserveAspectRatio="xMidYMid meet">

<g transform="translate(0.000000,56.000000) scale(0.100000,-0.100000)"
fill="#0147ff" stroke="none">
<path d="M268 522 c-20 -20 -83 -95 -141 -166 -133 -160 -132 -166 8 -166 51
0 96 -4 99 -8 3 -5 1 -39 -5 -77 -12 -85 -6 -105 29 -105 22 0 47 25 147 145
66 80 124 154 129 165 18 38 -8 50 -110 50 -107 0 -100 -8 -85 100 14 93 -17
119 -71 62z m-18 -197 c0 -40 8 -43 104 -47 l58 -3 -43 -54 -44 -53 -5 43 -5
44 -77 3 c-43 2 -78 6 -78 9 0 11 71 93 81 93 5 0 9 -16 9 -35z"/>
</g>
</svg>
